<?xml version="1.0" standalone="no"?>
<!DOCTYPE svg PUBLIC "-//W3C//DTD SVG 20010904//EN"
 "http://www.w3.org/TR/2001/REC-SVG-20010904/DTD/svg10.dtd">
<svg version="1.0" xmlns="http://www.w3.org/2000/svg"
 width="700.000000pt" height="700.000000pt" viewBox="0 0 700.000000 700.000000"
 preserveAspectRatio="xMidYMid meet">
<metadata>
Created by potrace 1.14, written by Peter Selinger 2001-2017
</metadata>
<g transform="translate(0.000000,700.000000) scale(0.100000,-0.100000)"
fill="#000000" stroke="none">
<path d="M2431 6987 c-90 -34 -153 -123 -153 -216 -1 -70 19 -118 70 -169 146
-146 401 -35 391 171 -1 29 -7 63 -13 77 -19 46 -68 101 -109 122 -50 25 -139
32 -186 15z"/>
<path d="M5712 6980 c-18 -11 -37 -32 -43 -48 -14 -35 -14 -179 0 -214 13 -34
66 -68 105 -68 41 0 92 35 105 72 14 41 14 180 -1 212 -26 58 -110 81 -166 46z"/>
<path d="M554 6703 c-95 -195 -86 -185 -174 -197 -74 -10 -136 -19 -155 -22
-11 -2 -42 -7 -70 -10 -27 -4 -57 -8 -65 -10 -8 -1 -18 -3 -22 -3 -4 -1 58
-65 138 -143 135 -133 145 -145 140 -173 -3 -16 -8 -46 -11 -65 -3 -19 -10
-57 -15 -85 -5 -27 -11 -66 -14 -85 -3 -19 -9 -56 -14 -82 -5 -27 -7 -48 -3
-48 3 0 83 41 176 90 94 50 174 90 178 90 8 0 197 -97 306 -157 24 -13 45 -22
48 -20 2 3 -11 92 -29 198 l-34 194 144 140 c157 152 155 147 56 159 -27 3
-62 8 -79 11 -78 13 -95 16 -151 21 -32 3 -65 9 -72 13 -7 4 -52 88 -101 187
l-88 179 -89 -182z"/>
<path d="M5368 6634 c-59 -32 -76 -121 -33 -172 29 -34 76 -48 155 -46 106 2
143 23 165 92 12 39 -20 107 -59 126 -45 21 -190 21 -228 0z"/>
<path d="M5943 6629 c-65 -41 -66 -144 -3 -189 25 -18 45 -22 118 -22 103 -1
135 10 162 54 35 58 21 121 -36 159 -43 28 -196 27 -241 -2z"/>
<path d="M5723 6404 c-56 -28 -69 -74 -64 -227 1 -54 54 -107 104 -107 94 0
127 45 127 172 0 64 -5 94 -17 117 -29 49 -98 70 -150 45z"/>
<path d="M2605 6289 c-57 -29 -68 -84 -42 -214 9 -44 18 -96 21 -115 14 -96
17 -117 21 -140 23 -134 23 -608 0 -740 -2 -14 -6 -43 -9 -65 -8 -69 -18 -125
-23 -125 -2 0 -50 27 -106 61 -221 131 -461 233 -652 276 -92 21 -127 24 -215
20 -118 -5 -173 -21 -236 -70 -58 -44 -111 -135 -128 -223 -3 -10 -23 -95 -46
-189 -23 -93 -53 -217 -67 -275 -28 -119 -28 -116 -36 -150 -7 -25 -155 -631
-221 -900 -19 -80 -69 -283 -110 -452 -41 -168 -89 -366 -106 -440 -18 -73
-34 -140 -36 -148 -14 -57 -125 -509 -128 -525 -2 -11 -26 -105 -51 -210 -26
-104 -48 -194 -50 -200 -1 -5 -5 -21 -8 -35 -10 -35 -138 -562 -142 -580 -2
-8 -30 -125 -63 -260 -79 -319 -112 -456 -112 -464 0 -5 84 22 135 44 11 5 92
36 180 69 88 33 203 76 255 96 52 20 239 90 415 157 176 67 343 129 370 139
50 17 1498 565 1915 725 124 47 284 108 355 135 616 233 835 321 891 360 91
62 141 200 130 359 -7 104 -47 274 -85 365 -5 11 -19 45 -31 75 -12 30 -47
104 -77 164 l-54 109 158 -7 c87 -4 172 -8 188 -10 39 -4 145 -17 170 -21 11
-1 43 -6 70 -10 117 -16 377 -80 533 -131 202 -67 234 -69 280 -20 57 62 38
147 -40 183 -116 55 -498 161 -673 187 -22 4 -47 8 -55 11 -8 2 -36 7 -62 10
-26 3 -62 7 -80 10 -119 17 -296 28 -480 29 l-146 1 -88 125 c-48 69 -111 156
-141 195 l-54 70 63 30 c35 17 122 58 193 92 72 34 210 100 309 147 98 47 180
86 181 86 1 0 83 39 181 86 99 47 206 99 239 114 33 15 128 60 210 100 83 40
186 89 230 110 502 236 558 265 578 298 22 39 22 79 -3 119 -41 68 -92 71
-220 10 -52 -24 -149 -70 -215 -102 -66 -32 -165 -79 -220 -105 -55 -26 -154
-73 -220 -105 -66 -32 -160 -77 -210 -100 -194 -92 -285 -135 -410 -195 -71
-34 -168 -80 -215 -102 -47 -22 -128 -61 -180 -86 -52 -25 -173 -82 -269 -128
l-174 -83 -46 52 c-54 61 -176 193 -206 223 -11 11 -33 35 -49 52 l-30 32 54
47 c30 27 61 55 70 63 8 8 101 91 205 185 105 93 202 182 217 199 109 117 -56
269 -171 158 -20 -20 -169 -155 -256 -233 -33 -29 -65 -58 -71 -63 -29 -28
-176 -159 -196 -176 -22 -18 -23 -17 -108 60 -115 104 -252 217 -393 324 -64
49 -117 92 -117 96 0 3 4 31 10 61 13 72 27 162 35 229 26 201 26 642 1 815
-3 17 -7 48 -10 70 -3 22 -8 54 -11 70 -3 17 -7 44 -10 60 -3 17 -7 41 -10 55
-3 14 -8 41 -11 60 -9 55 -34 100 -65 115 -32 17 -84 18 -114 4z"/>
<path d="M3484 5939 c-46 -13 -119 -83 -139 -131 -48 -119 8 -257 124 -305
146 -62 320 50 321 206 1 164 -148 276 -306 230z"/>
<path d="M4403 5602 l-32 -3 0 -290 0 -289 22 -1 c26 -1 524 -1 548 0 15 1 16
31 16 286 1 189 -3 287 -10 292 -10 6 -484 11 -544 5z"/>
<path d="M6181 5349 c-16 -10 -36 -31 -44 -46 -17 -35 -16 -192 2 -226 38 -71
153 -76 198 -8 22 34 28 180 8 227 -26 63 -106 89 -164 53z"/>
<path d="M5793 5188 c-60 -16 -97 -102 -68 -158 24 -46 129 -138 167 -145 87
-16 159 75 124 158 -18 44 -127 143 -163 149 -16 2 -43 0 -60 -4z"/>
<path d="M6615 5184 c-45 -15 -154 -125 -157 -157 -5 -69 14 -110 61 -131 64
-29 112 -10 191 77 51 56 62 79 56 117 -12 80 -76 120 -151 94z"/>
<path d="M6668 4775 c-36 -11 -78 -66 -78 -100 0 -42 22 -84 54 -103 43 -26
181 -30 229 -7 38 18 67 61 67 102 0 38 -34 91 -68 104 -37 15 -165 17 -204 4z"/>
<path d="M6508 4433 c-45 -28 -65 -104 -39 -150 5 -10 36 -44 69 -76 47 -47
67 -60 100 -64 91 -12 162 83 120 160 -20 35 -100 117 -130 133 -36 19 -87 17
-120 -3z"/>
<path d="M6182 4300 c-17 -11 -36 -29 -43 -42 -18 -33 -19 -175 -2 -219 35
-89 166 -92 207 -4 17 35 16 189 -1 220 -31 57 -107 78 -161 45z"/>
<path d="M6285 2673 c-149 -49 -206 -230 -114 -358 102 -143 323 -119 397 43
66 145 -35 314 -195 325 -27 2 -66 -2 -88 -10z"/>
<path d="M5264 1975 c-79 -35 -91 -154 -20 -200 14 -9 58 -23 98 -31 220 -45
475 -166 652 -309 50 -41 176 -166 176 -175 0 -4 -15 -10 -32 -13 -146 -24
-320 -147 -413 -292 -100 -156 -92 -373 19 -520 175 -230 503 -254 705 -53 78
77 134 203 147 328 3 36 7 66 8 67 1 1 14 -21 28 -50 89 -177 93 -334 12 -517
-27 -62 -34 -90 -30 -114 8 -39 36 -73 71 -86 73 -28 123 3 171 104 103 217
103 469 -1 693 -57 124 -128 212 -243 300 -39 31 -82 72 -94 91 -41 66 -164
217 -234 287 -270 270 -582 431 -969 499 -11 2 -34 -2 -51 -9z m1036 -971 c54
-46 64 -77 64 -199 0 -90 -4 -120 -22 -167 -36 -90 -116 -153 -204 -161 -43
-4 -123 19 -159 46 -59 43 -101 140 -92 212 11 90 101 198 209 251 102 50 159
55 204 18z"/>
</g>
</svg>
